<svg width="20" height="21" viewBox="0 0 20 21" fill="none" xmlns="http://www.w3.org/2000/svg">
<g clip-path="url(#clip0_103_1468)">
<g clip-path="url(#clip1_103_1468)">
<path d="M18.2848 15.7111C17.9823 16.4098 17.6243 17.053 17.2095 17.6444C16.6441 18.4505 16.1812 19.0085 15.8244 19.3184C15.2713 19.827 14.6787 20.0875 14.0442 20.1023C13.5887 20.1023 13.0393 19.9727 12.3998 19.7097C11.7582 19.448 11.1686 19.3184 10.6295 19.3184C10.0641 19.3184 9.45768 19.448 8.80906 19.7097C8.15945 19.9727 7.63613 20.1097 7.23602 20.1233C6.62752 20.1492 6.021 19.8813 5.41559 19.3184C5.02918 18.9813 4.54586 18.4036 3.96687 17.5851C3.34565 16.711 2.83493 15.6975 2.43482 14.542C2.00631 13.2939 1.7915 12.0853 1.7915 10.9152C1.7915 9.57484 2.08112 8.41883 2.66123 7.45009C3.11714 6.67197 3.72366 6.05816 4.48278 5.60755C5.24189 5.15695 6.06211 4.92733 6.94541 4.91264C7.42873 4.91264 8.06254 5.06214 8.85017 5.35596C9.63557 5.65076 10.1399 5.80026 10.361 5.80026C10.5263 5.80026 11.0865 5.62545 12.0362 5.27695C12.9344 4.95375 13.6924 4.81992 14.3133 4.87264C15.996 5.00844 17.2601 5.67175 18.1009 6.86678C16.596 7.7786 15.8515 9.05572 15.8664 10.6941C15.8799 11.9702 16.3429 13.0321 17.2527 13.8753C17.6651 14.2667 18.1256 14.5691 18.6379 14.7839C18.5268 15.1062 18.4095 15.4148 18.2848 15.7111V15.7111ZM14.4257 0.525114C14.4257 1.52534 14.0602 2.45925 13.3319 3.32367C12.4529 4.3513 11.3897 4.9451 10.2368 4.8514C10.2221 4.73141 10.2136 4.60511 10.2136 4.4724C10.2136 3.51218 10.6316 2.48456 11.3739 1.64434C11.7445 1.21892 12.2159 0.86519 12.7874 0.583013C13.3578 0.305046 13.8973 0.151324 14.4047 0.125C14.4195 0.258715 14.4257 0.392438 14.4257 0.525101V0.525114Z" fill="white"/>
</g>
</g>
<defs>
<clipPath id="clip0_103_1468">
<rect width="20" height="20" fill="white" transform="translate(0 0.5)"/>
</clipPath>
<clipPath id="clip1_103_1468">
<rect width="20" height="20" fill="white" transform="translate(0.125 0.125)"/>
</clipPath>
</defs>
</svg>
