<svg width="25" height="25" viewBox="0 0 25 25" fill="none" xmlns="http://www.w3.org/2000/svg">
<path d="M21.5 20.375H23.5V22.375H1.5V20.375H3.5V3.375C3.5 3.10978 3.60536 2.85543 3.79289 2.66789C3.98043 2.48036 4.23478 2.375 4.5 2.375H20.5C20.7652 2.375 21.0196 2.48036 21.2071 2.66789C21.3946 2.85543 21.5 3.10978 21.5 3.375V20.375ZM8.5 11.375V13.375H11.5V11.375H8.5ZM8.5 7.375V9.375H11.5V7.375H8.5ZM8.5 15.375V17.375H11.5V15.375H8.5ZM13.5 15.375V17.375H16.5V15.375H13.5ZM13.5 11.375V13.375H16.5V11.375H13.5ZM13.5 7.375V9.375H16.5V7.375H13.5Z" fill="white"/>
</svg>
