<svg width="24" height="24" viewBox="0 0 24 24" fill="none" xmlns="http://www.w3.org/2000/svg">
<path d="M4.00006 13.256V12H2.00006V10H8.36506L11.2001 8H14.6911L13.6001 5H11.0001V3H15.0001L16.0921 6H20.0001V9H17.1841L18.6401 13.002C19.7448 13.0371 20.798 13.4776 21.5988 14.2395C22.3996 15.0014 22.892 16.0313 22.9821 17.133C23.0722 18.2346 22.7537 19.3309 22.0873 20.2127C21.4209 21.0946 20.4533 21.7003 19.3689 21.9145C18.2845 22.1286 17.1593 21.9362 16.2077 21.3738C15.2561 20.8115 14.5448 19.9186 14.2093 18.8654C13.8739 17.8122 13.9378 16.6724 14.3888 15.6633C14.8399 14.6542 15.6466 13.8464 16.6551 13.394L15.4191 10H14.4721L12.8901 15.87L12.8881 15.869L12.8901 15.875L9.96507 16.939C10.0706 17.7812 9.93583 18.6362 9.57623 19.4051C9.21663 20.174 8.64689 20.8255 7.93279 21.2844C7.2187 21.7433 6.38937 21.9908 5.54058 21.9985C4.69178 22.0061 3.85813 21.7736 3.13587 21.3276C2.41362 20.8817 1.83222 20.2405 1.45881 19.4783C1.0854 18.716 0.93521 17.8636 1.02557 17.0196C1.11594 16.1756 1.44318 15.3744 1.9695 14.7084C2.49583 14.0424 3.19977 13.5389 4.00006 13.256V13.256ZM6.00006 13.027C6.66351 13.1013 7.30212 13.3222 7.8696 13.6739C8.43708 14.0255 8.91922 14.499 9.28106 15.06L11.2381 14.347L12.4031 10H11.8561L9.00006 12H6.00006V13.027V13.027ZM5.50006 20C6.16311 20 6.79899 19.7366 7.26783 19.2678C7.73667 18.7989 8.00006 18.163 8.00006 17.5C8.00006 16.837 7.73667 16.2011 7.26783 15.7322C6.79899 15.2634 6.16311 15 5.50006 15C4.83702 15 4.20114 15.2634 3.7323 15.7322C3.26346 16.2011 3.00006 16.837 3.00006 17.5C3.00006 18.163 3.26346 18.7989 3.7323 19.2678C4.20114 19.7366 4.83702 20 5.50006 20V20ZM18.5001 20C19.1631 20 19.799 19.7366 20.2678 19.2678C20.7367 18.7989 21.0001 18.163 21.0001 17.5C21.0001 16.837 20.7367 16.2011 20.2678 15.7322C19.799 15.2634 19.1631 15 18.5001 15C17.837 15 17.2011 15.2634 16.7323 15.7322C16.2635 16.2011 16.0001 16.837 16.0001 17.5C16.0001 18.163 16.2635 18.7989 16.7323 19.2678C17.2011 19.7366 17.837 20 18.5001 20Z" fill="#1076FF"/>
</svg>
