<svg width="34" height="34" viewBox="0 0 34 34" fill="none" xmlns="http://www.w3.org/2000/svg">
<path d="M12.5556 7V11.4444M25.8889 27H8.11111C7.81643 27 7.53381 26.8829 7.32544 26.6746C7.11706 26.4662 7 26.1836 7 25.8889V14.7778H27V25.8889C27 26.1836 26.8829 26.4662 26.6746 26.6746C26.4662 26.8829 26.1836 27 25.8889 27ZM27 10.3333C27 10.0386 26.8829 9.75603 26.6746 9.54766C26.4662 9.33929 26.1836 9.22222 25.8889 9.22222H8.11111C7.81643 9.22222 7.53381 9.33929 7.32544 9.54766C7.11706 9.75603 7 10.0386 7 10.3333V14.7778H27V10.3333ZM21.4444 7V11.4444V7Z" stroke="#1076FF" stroke-width="2" stroke-linecap="round" stroke-linejoin="round"/>
</svg>
