<svg width="29" height="29" viewBox="0 0 29 29" fill="none" xmlns="http://www.w3.org/2000/svg">
<path d="M14.5 29C11.6322 29 8.82875 28.1496 6.44424 26.5563C4.05972 24.963 2.20122 22.6984 1.10375 20.0489C0.00628265 17.3994 -0.280866 14.4839 0.27862 11.6712C0.838105 8.85847 2.2191 6.27482 4.24696 4.24696C6.27482 2.2191 8.85847 0.838105 11.6712 0.27862C14.4839 -0.280866 17.3994 0.00628265 20.0489 1.10375C22.6984 2.20122 24.963 4.05972 26.5563 6.44424C28.1496 8.82875 29 11.6322 29 14.5C28.9957 18.3443 27.4667 22.03 24.7483 24.7483C22.03 27.4667 18.3443 28.9957 14.5 29V29ZM10.8959 15.7083C10.9429 18.3529 11.3888 20.9753 12.2187 23.4868C12.5117 24.3805 12.9565 25.217 13.5333 25.9598C13.978 26.4754 14.3034 26.5833 14.5 26.5833C14.6966 26.5833 15.022 26.4754 15.4667 25.9598C16.0441 25.2171 16.4894 24.3806 16.7829 23.4868C17.6128 20.9753 18.0587 18.3529 18.1057 15.7083H10.8959ZM20.5223 15.7083C20.4732 18.6347 19.9777 21.5364 19.053 24.3133C18.8501 24.8777 18.6106 25.4282 18.3361 25.9614C20.5434 25.2226 22.4903 23.8619 23.9428 22.043C25.3953 20.2241 26.2915 18.0244 26.5237 15.7083H20.5223ZM2.47789 15.7083C2.71146 18.024 3.60818 20.223 5.06048 22.0417C6.51278 23.8604 8.45898 25.2214 10.6656 25.9614C10.391 25.4282 10.1515 24.8777 9.94862 24.3133C9.02264 21.5367 8.52659 18.6349 8.47767 15.7083H2.47467H2.47789ZM18.3393 3.04017C18.6139 3.57338 18.8534 4.12394 19.0562 4.68834C19.9809 7.4652 20.4764 10.3669 20.5256 13.2933H26.5269C26.2948 10.9765 25.3982 8.77619 23.9451 6.95694C22.492 5.13768 20.5442 3.777 18.3361 3.03856L18.3393 3.04017ZM14.5 2.41667C14.3051 2.41667 13.978 2.52462 13.5333 3.04017C12.9562 3.78245 12.5109 4.61844 12.2171 5.51162C11.3877 8.02371 10.9423 10.6466 10.8959 13.2917H18.1057C18.0588 10.6465 17.6129 8.02363 16.7829 5.51162C16.4891 4.61844 16.0438 3.78245 15.4667 3.04017C15.022 2.52462 14.6949 2.41667 14.5 2.41667ZM10.6639 3.03856C8.45706 3.77838 6.51053 5.13928 5.05793 6.95796C3.60533 8.77664 2.70836 10.9758 2.47467 13.2917H8.47767C8.52631 10.3658 9.02181 7.46452 9.947 4.68834C10.1498 4.12339 10.3893 3.57229 10.6639 3.03856V3.03856Z" fill="#1076FF"/>
</svg>
