<svg width="20" height="21" viewBox="0 0 20 21" fill="none" xmlns="http://www.w3.org/2000/svg">
<g clip-path="url(#clip0_103_1466)">
<path fill-rule="evenodd" clip-rule="evenodd" d="M14.0363 5.95625C13.0038 4.9715 11.6259 4.43503 10.2002 4.45707C7.59134 4.45707 5.37566 6.21712 4.58564 8.58712C4.16676 9.82908 4.16676 11.174 4.58564 12.4159H4.58931C5.38299 14.7823 7.595 16.5423 10.2039 16.5423C11.5505 16.5423 12.7067 16.1979 13.6027 15.5895V15.587C14.6573 14.8889 15.3775 13.7902 15.6016 12.5482H10.2002V8.69742H19.6325C19.7501 9.36617 19.8052 10.0496 19.8052 10.7294C19.8052 13.7709 18.7182 16.3424 16.8269 18.0841L16.8289 18.0856C15.1717 19.6142 12.8972 20.4997 10.2002 20.4997C6.41918 20.4997 2.96153 18.3685 1.26394 14.9917C-0.154389 12.1661 -0.154385 8.83703 1.26395 6.01139C2.96154 2.6309 6.41918 0.499697 10.2002 0.499697C12.6841 0.470302 15.0835 1.40361 16.8913 3.1012L14.0363 5.95625Z" fill="white"/>
</g>
<defs>
<clipPath id="clip0_103_1466">
<rect width="20" height="20" fill="white" transform="translate(0 0.5)"/>
</clipPath>
</defs>
</svg>
