<svg width="24" height="24" viewBox="0 0 24 24" fill="none" xmlns="http://www.w3.org/2000/svg">
<g clip-path="url(#clip0_21_1887)">
<path d="M12.0005 0.75C12.4929 0.75 12.9805 0.846997 13.4355 1.03545C13.8905 1.22391 14.3039 1.50013 14.6521 1.84835C15.0003 2.19657 15.2765 2.60997 15.465 3.06494C15.6535 3.51991 15.7505 4.00754 15.7505 4.5C16.745 4.5 17.6988 4.89509 18.4021 5.59835C19.1054 6.30161 19.5005 7.25544 19.5005 8.25C19.5005 9.24456 19.1054 10.1984 18.4021 10.9017C17.6988 11.6049 16.745 12 15.7505 12C15.7503 12.8644 15.4517 13.7023 14.9051 14.3719C14.3585 15.0415 13.5973 15.5018 12.7505 15.675V18.8903C13.9895 17.418 15.8652 16.5 17.963 16.5C18.9303 16.4989 19.8864 16.7072 20.7657 17.1105L21.0005 17.223L21.002 18.969C20.1148 18.337 19.0522 17.9982 17.963 18C15.3065 18 13.1232 19.8667 12.7655 22.4017L12.7505 22.5142L12.746 22.5877C12.7262 22.7552 12.6506 22.911 12.5314 23.0302C12.4122 23.1494 12.2564 23.225 12.089 23.2448L12.0005 23.25C11.8314 23.2501 11.6673 23.1932 11.5347 23.0884C11.4021 22.9835 11.3088 22.837 11.27 22.6725L11.255 22.5795C10.9767 19.9673 8.7117 18 5.97945 18C4.91586 17.9981 3.87705 18.321 3.00195 18.9255L3.00345 17.19C3.91695 16.74 4.93095 16.5 5.97945 16.5C8.09295 16.5 9.99795 17.43 11.2505 18.918V15.675C10.4309 15.5074 9.69097 15.0707 9.14809 14.4343C8.60521 13.798 8.29059 12.9984 8.2542 12.1627L8.25045 12L8.0877 11.9963C7.12313 11.9531 6.21239 11.5395 5.54509 10.8417C4.87779 10.1439 4.50537 9.21553 4.50537 8.25C4.50537 7.28447 4.87779 6.35614 5.54509 5.65831C6.21239 4.96047 7.12313 4.54692 8.0877 4.50375L8.25045 4.5L8.2542 4.33725C8.29614 3.37181 8.70916 2.45983 9.40712 1.79149C10.1051 1.12316 11.0341 0.750056 12.0005 0.75ZM14.1485 11.325C13.5402 11.7502 12.7992 12 12.0005 12C11.2017 12 10.4607 11.7502 9.85245 11.325L9.80595 11.499C9.73108 11.8284 9.73134 12.1705 9.80672 12.4998C9.8821 12.8291 10.0307 13.1371 10.2414 13.4012C10.4521 13.6652 10.7196 13.8784 11.024 14.025C11.3283 14.1715 11.6618 14.2476 11.9996 14.2477C12.3374 14.2477 12.6709 14.1717 12.9753 14.0253C13.2798 13.8789 13.5473 13.6658 13.7581 13.4018C13.9689 13.1378 14.1176 12.8298 14.1931 12.5005C14.2686 12.1712 14.269 11.8292 14.1942 11.4998L14.1485 11.325ZM8.25045 6C7.93405 6.00051 7.62131 6.06774 7.33265 6.19731C7.04399 6.32689 6.78591 6.51588 6.57525 6.75196C6.36459 6.98804 6.20609 7.2659 6.1101 7.5674C6.01411 7.86889 5.98279 8.18724 6.01818 8.50166C6.05357 8.81608 6.15487 9.1195 6.31548 9.39211C6.47609 9.66472 6.69239 9.90039 6.95026 10.0837C7.20813 10.2671 7.50176 10.394 7.812 10.4561C8.12224 10.5183 8.4421 10.5143 8.7507 10.4445L8.9262 10.398C8.48521 9.76863 8.24922 9.01849 8.25045 8.25C8.25045 7.45125 8.5002 6.71025 8.92545 6.102L8.75145 6.0555C8.58705 6.01837 8.419 5.99976 8.25045 6ZM15.7505 6C15.5795 6 15.413 6.01875 15.2502 6.0555L15.0747 6.102C15.5007 6.71025 15.7505 7.45125 15.7505 8.25C15.7519 9.01841 15.5162 9.76854 15.0755 10.398L15.2495 10.4445C15.558 10.5143 15.8778 10.5183 16.1881 10.4562C16.4983 10.394 16.7919 10.2671 17.0497 10.0838C17.3076 9.90054 17.5239 9.66491 17.6845 9.39235C17.8452 9.11978 17.9465 8.81641 17.9819 8.50203C18.0174 8.18765 17.9861 7.86932 17.8902 7.56784C17.7943 7.26636 17.6359 6.98849 17.4253 6.75238C17.2147 6.51627 16.9567 6.32723 16.6681 6.19758C16.3795 6.06794 16.0668 6.00061 15.7505 6ZM12.0005 6C11.705 6 11.4124 6.0582 11.1394 6.17127C10.8664 6.28434 10.6184 6.45008 10.4095 6.65901C10.2005 6.86794 10.0348 7.11598 9.92172 7.38896C9.80865 7.66194 9.75045 7.95453 9.75045 8.25C9.75045 8.54547 9.80865 8.83806 9.92172 9.11104C10.0348 9.38402 10.2005 9.63206 10.4095 9.84099C10.6184 10.0499 10.8664 10.2157 11.1394 10.3287C11.4124 10.4418 11.705 10.5 12.0005 10.5C12.5972 10.5 13.1695 10.2629 13.5914 9.84099C14.0134 9.41903 14.2505 8.84674 14.2505 8.25C14.2505 7.65326 14.0134 7.08097 13.5914 6.65901C13.1695 6.23705 12.5972 6 12.0005 6ZM12.0005 2.25C11.6624 2.24988 11.3287 2.32593 11.024 2.47251C10.7194 2.61908 10.4518 2.83242 10.2409 3.09666C10.0301 3.3609 9.88147 3.66925 9.80617 3.99881C9.73087 4.32837 9.73079 4.67066 9.80595 5.00025L9.85245 5.17575C10.4607 4.74975 11.2017 4.5 12.0005 4.5C12.7992 4.5 13.5402 4.74975 14.1485 5.175L14.195 5.001C14.2702 4.67136 14.2703 4.32899 14.195 3.99933C14.1198 3.66968 13.9712 3.36122 13.7604 3.09689C13.5495 2.83256 13.2818 2.61916 12.9771 2.47254C12.6724 2.32591 12.3386 2.24985 12.0005 2.25Z" fill="#1E1E1E"/>
</g>
<defs>
<clipPath id="clip0_21_1887">
<rect width="24" height="24" fill="white"/>
</clipPath>
</defs>
</svg>
