<svg width="35" height="35" viewBox="0 0 35 35" fill="none" xmlns="http://www.w3.org/2000/svg">
<path fill-rule="evenodd" clip-rule="evenodd" d="M16.846 7.93216C16.9769 7.77584 17.1191 7.61932 17.2732 7.46517C18.7163 6.02208 21.0604 4.94778 24.4914 5.80554C27.9145 6.66134 30.512 9.24077 31.3799 12.4957C32.2586 15.7915 31.3247 19.5952 28.0851 22.8349C24.679 26.241 21.7715 29.1499 19.9418 30.9808C18.2334 32.6903 15.4664 32.6911 13.7573 30.9822L5.60873 22.8349C2.36784 19.5946 1.43387 15.7907 2.31298 12.4949C3.18115 9.24018 5.77907 6.66133 9.20128 5.80556C12.6318 4.94773 14.9757 6.02217 16.4187 7.46517C16.5728 7.61932 16.715 7.77584 16.846 7.93216Z" fill="#1076FF"/>
</svg>
