<svg width="35" height="36" viewBox="0 0 35 36" fill="none" xmlns="http://www.w3.org/2000/svg">
<path fill-rule="evenodd" clip-rule="evenodd" d="M15.0106 10.0696C14.2661 9.32507 12.9645 8.5766 10.5631 9.17709C8.1535 9.77966 6.37587 11.575 5.78542 13.7886C5.20591 15.9612 5.73026 18.7198 8.32525 21.3144L16.4738 29.4616C17.0435 30.0313 17.9634 30.0311 18.533 29.4611C20.3629 27.63 23.2706 24.7209 26.677 21.3145C29.2707 18.7208 29.7953 15.962 29.216 13.7891C28.6257 11.5752 26.8484 9.77965 24.4383 9.17711C22.0361 8.57655 20.7343 9.32515 19.9899 10.0696C19.5827 10.4768 19.3024 10.9282 19.1237 11.2856C19.0356 11.4619 18.9758 11.608 18.9399 11.7038C18.922 11.7514 18.9103 11.7858 18.9043 11.8044L18.8996 11.8191C18.7174 12.4395 18.1479 12.8664 17.5004 12.8665C16.8529 12.8665 16.2834 12.4397 16.1011 11.8193L16.0964 11.8045C16.0904 11.786 16.0787 11.7515 16.0608 11.7039C16.0249 11.6082 15.9651 11.462 15.8769 11.2857C15.6982 10.9283 15.4178 10.4768 15.0106 10.0696ZM17.5003 8.47415C17.6312 8.31783 17.7734 8.16131 17.9275 8.00716C19.3706 6.56408 21.7147 5.48977 25.1457 6.34753C28.5688 7.20333 31.1663 9.78276 32.0342 13.0377C32.9129 16.3334 31.979 20.1372 28.7394 23.3769C25.3333 26.783 22.4258 29.6919 20.596 31.5228C18.8877 33.2323 16.1207 33.2331 14.4116 31.5242L6.26302 23.3769C3.02213 20.1366 2.08817 16.3327 2.96728 13.0369C3.83544 9.78218 6.43336 7.20332 9.85558 6.34755C13.286 5.48972 15.63 6.56416 17.073 8.00716C17.2271 8.16132 17.3693 8.31783 17.5003 8.47415Z" fill="#1076FF"/>
</svg>
