<svg width="34" height="34" viewBox="0 0 34 34" fill="none" xmlns="http://www.w3.org/2000/svg">
<g clip-path="url(#clip0_158_1432)">
<path d="M9.90909 25.6588H24.0909V14.1368L17 7.75246L9.90909 14.1368V25.6588ZM25.2727 28H8.72727C8.41383 28 8.11324 27.8767 7.8916 27.6571C7.66997 27.4376 7.54545 27.1399 7.54545 26.8294V16.2942H4L16.2046 5.30477C16.4222 5.10867 16.7058 5 17 5C17.2942 5 17.5778 5.10867 17.7954 5.30477L30 16.2942H26.4545V26.8294C26.4545 27.1399 26.33 27.4376 26.1084 27.6571C25.8868 27.8767 25.5862 28 25.2727 28ZM11.6818 18.6353H14.0455C14.0455 19.4115 14.3567 20.1558 14.9108 20.7047C15.4649 21.2535 16.2164 21.5618 17 21.5618C17.7836 21.5618 18.5351 21.2535 19.0892 20.7047C19.6433 20.1558 19.9545 19.4115 19.9545 18.6353H22.3182C22.3182 20.0324 21.7579 21.3722 20.7605 22.3601C19.7632 23.348 18.4105 23.903 17 23.903C15.5895 23.903 14.2368 23.348 13.2395 22.3601C12.2421 21.3722 11.6818 20.0324 11.6818 18.6353V18.6353Z" fill="white"/>
</g>
<defs>
<clipPath id="clip0_158_1432">
<rect width="34" height="34" fill="white"/>
</clipPath>
</defs>
</svg>
