<svg width="14" height="13" viewBox="0 0 14 13" fill="none" xmlns="http://www.w3.org/2000/svg">
<g clip-path="url(#clip0_101_1426)">
<path fill-rule="evenodd" clip-rule="evenodd" d="M2.69824 0C1.59366 0 0.698242 0.895432 0.698242 2V11C0.698242 12.1046 1.59366 13 2.69824 13H11.6982C12.8028 13 13.6982 12.1046 13.6982 11V2C13.6982 0.895432 12.8028 0 11.6982 0H2.69824ZM1.69824 6V11C1.69824 11.5523 2.14596 12 2.69824 12H11.6982C12.2505 12 12.6982 11.5523 12.6982 11V6H10.6628C10.6862 6.1633 10.6982 6.33024 10.6982 6.5C10.6982 8.433 9.13122 10 7.19824 10C5.26526 10 3.69824 8.433 3.69824 6.5C3.69824 6.33024 3.71032 6.1633 3.73367 6H1.69824ZM4.74826 6C4.71545 6.16155 4.69824 6.32877 4.69824 6.5C4.69824 7.88071 5.81753 9 7.19824 9C8.57895 9 9.69824 7.88071 9.69824 6.5C9.69824 6.32877 9.68103 6.16155 9.64822 6C9.41659 4.85888 8.40771 4 7.19824 4C5.98877 4 4.97989 4.85888 4.74826 6ZM11.6982 2H9.69824V4H11.6982V2Z" fill="#1076FF"/>
</g>
<defs>
<clipPath id="clip0_101_1426">
<rect width="13" height="13" fill="white" transform="translate(0.698242)"/>
</clipPath>
</defs>
</svg>
