<svg width="58" height="58" viewBox="0 0 58 58" fill="none" xmlns="http://www.w3.org/2000/svg">
<path fill-rule="evenodd" clip-rule="evenodd" d="M26.5106 21.0696C25.7661 20.3251 24.4645 19.5766 22.0631 20.1771C19.6535 20.7797 17.8759 22.575 17.2854 24.7886C16.7059 26.9612 17.2303 29.7198 19.8253 32.3144L27.9738 40.4616C28.5435 41.0313 29.4634 41.0311 30.033 40.4611C31.8629 38.63 34.7706 35.7209 38.177 32.3145C40.7707 29.7208 41.2953 26.962 40.716 24.7891C40.1257 22.5752 38.3484 20.7797 35.9383 20.1771C33.5361 19.5765 32.2343 20.3252 31.4899 21.0696C31.0827 21.4768 30.8024 21.9282 30.6237 22.2856C30.5356 22.4619 30.4758 22.608 30.4399 22.7038C30.422 22.7514 30.4103 22.7858 30.4043 22.8044L30.3996 22.8191C30.2174 23.4395 29.6479 23.8664 29.0004 23.8665C28.3529 23.8665 27.7834 23.4397 27.6011 22.8193L27.5964 22.8045C27.5904 22.786 27.5787 22.7515 27.5608 22.7039C27.5249 22.6082 27.4651 22.462 27.3769 22.2857C27.1982 21.9283 26.9178 21.4768 26.5106 21.0696ZM29.0003 19.4741C29.1312 19.3178 29.2734 19.1613 29.4275 19.0072C30.8706 17.5641 33.2147 16.4898 36.6457 17.3475C40.0688 18.2033 42.6663 20.7828 43.5342 24.0377C44.4129 27.3334 43.479 31.1372 40.2394 34.3769C36.8333 37.783 33.9258 40.6919 32.096 42.5228C30.3877 44.2323 27.6207 44.2331 25.9116 42.5242L17.763 34.3769C14.5221 31.1366 13.5882 27.3327 14.4673 24.0369C15.3354 20.7822 17.9334 18.2033 21.3556 17.3476C24.786 16.4897 27.13 17.5642 28.573 19.0072C28.7271 19.1613 28.8693 19.3178 29.0003 19.4741Z" fill="#1076FF"/>
<rect x="1" y="1" width="56" height="56" rx="14" stroke="#CECECE" stroke-width="1.75"/>
</svg>
