<svg width="247" height="37" viewBox="0 0 247 37" fill="none" xmlns="http://www.w3.org/2000/svg">
<rect x="119" width="127.289" height="36.1859" rx="3.19287" fill="#1076FF"/>
<path d="M20.7588 26.6489V30.2734H2.92893V4.27921H20.4293V7.90376H7.02943V15.2993H18.6353V18.7042H7.02943V26.6489H20.7588ZM26.2702 4.27921L34.1051 25.2576L41.9034 4.27921H46.2602L36.0455 30.2734H32.1647L21.9135 4.27921H26.2702ZM66.8994 26.6489V30.2734H49.0695V4.27921H66.5699V7.90376H53.17V15.2993H64.7759V18.7042H53.17V26.6489H66.8994ZM74.8638 11.8944V30.2734H70.7633V4.27921H74.1316L88.8495 23.061V4.31582H92.9866V30.2734H89.3986L74.8638 11.8944ZM117.538 7.90376H108.898V30.2734H104.761V7.90376H96.084V4.27921H117.538V7.90376Z" fill="#1076FF"/>
<path d="M142.628 10.823C142.384 10.5545 142.03 10.2739 141.566 9.98096C141.103 9.66366 140.553 9.37077 139.919 9.10228C139.284 8.8338 138.601 8.61413 137.869 8.44328C137.136 8.27242 136.38 8.187 135.599 8.187C133.89 8.187 132.621 8.5043 131.791 9.1389C130.961 9.7735 130.546 10.6522 130.546 11.7749C130.546 12.6048 130.778 13.2638 131.242 13.752C131.706 14.2157 132.413 14.6062 133.365 14.9235C134.317 15.2408 135.513 15.5825 136.953 15.9487C138.711 16.3636 140.236 16.8639 141.53 17.4497C142.823 18.0111 143.812 18.7677 144.495 19.7196C145.179 20.6715 145.52 21.9285 145.52 23.4906C145.52 24.8087 145.276 25.9436 144.788 26.8955C144.3 27.8474 143.617 28.6285 142.738 29.2387C141.859 29.8244 140.846 30.2638 139.699 30.5567C138.552 30.8252 137.319 30.9594 136.001 30.9594C134.708 30.9594 133.414 30.8252 132.121 30.5567C130.851 30.2882 129.631 29.8977 128.459 29.3851C127.312 28.8481 126.25 28.2013 125.274 27.4447L127.141 23.93C127.459 24.2473 127.91 24.6012 128.496 24.9917C129.106 25.3578 129.802 25.7117 130.583 26.0535C131.388 26.3952 132.255 26.6881 133.182 26.9321C134.134 27.1518 135.098 27.2616 136.075 27.2616C137.71 27.2616 138.955 26.9809 139.809 26.4196C140.688 25.8338 141.127 25.0039 141.127 23.93C141.127 23.0513 140.846 22.3557 140.285 21.8431C139.724 21.3061 138.906 20.8546 137.832 20.4885C136.758 20.1224 135.477 19.7563 133.988 19.3901C132.279 18.9264 130.851 18.426 129.704 17.8891C128.557 17.3277 127.691 16.6199 127.105 15.7656C126.543 14.8869 126.263 13.7764 126.263 12.4339C126.263 10.7254 126.678 9.28534 127.507 8.11377C128.337 6.91779 129.46 6.02691 130.876 5.44112C132.316 4.83093 133.927 4.52584 135.708 4.52584C136.88 4.52584 137.991 4.66008 139.04 4.92856C140.09 5.17264 141.066 5.51435 141.969 5.95369C142.897 6.39303 143.739 6.89338 144.495 7.45476L142.628 10.823ZM168.341 8.33344H159.701V30.7031H155.564V8.33344H146.887V4.70889H168.341V8.33344ZM181.582 30.8862C179.703 30.8862 178.006 30.5201 176.493 29.7878C174.98 29.0556 173.674 28.0671 172.576 26.8223C171.477 25.5531 170.623 24.1374 170.013 22.5754C169.427 20.9888 169.134 19.3657 169.134 17.706C169.134 15.9731 169.452 14.3255 170.086 12.7634C170.721 11.1769 171.599 9.7735 172.722 8.55311C173.845 7.30832 175.163 6.33201 176.676 5.62418C178.214 4.89195 179.874 4.52584 181.655 4.52584C183.51 4.52584 185.195 4.90416 186.708 5.6608C188.246 6.41743 189.551 7.43036 190.625 8.69956C191.724 9.96876 192.566 11.3844 193.151 12.9465C193.762 14.5086 194.067 16.1073 194.067 17.7426C194.067 19.4756 193.749 21.1353 193.115 22.7218C192.505 24.2839 191.638 25.6873 190.515 26.9321C189.393 28.1525 188.062 29.1166 186.525 29.8244C185.012 30.5323 183.364 30.8862 181.582 30.8862ZM173.308 17.706C173.308 18.9264 173.503 20.1102 173.894 21.2573C174.284 22.4045 174.833 23.4296 175.541 24.3327C176.274 25.2114 177.152 25.907 178.177 26.4196C179.202 26.9321 180.35 27.1884 181.619 27.1884C182.937 27.1884 184.108 26.9199 185.134 26.383C186.159 25.846 187.013 25.126 187.696 24.2229C188.404 23.2954 188.941 22.2703 189.307 21.1475C189.673 20.0003 189.856 18.8532 189.856 17.706C189.856 16.4856 189.661 15.3141 189.271 14.1913C188.905 13.0441 188.355 12.0312 187.623 11.1525C186.891 10.2494 186.012 9.54162 184.987 9.02906C183.986 8.5165 182.864 8.26022 181.619 8.26022C180.301 8.26022 179.129 8.5287 178.104 9.06567C177.079 9.60264 176.213 10.3227 175.505 11.2258C174.797 12.1288 174.248 13.1418 173.857 14.2645C173.491 15.3873 173.308 16.5344 173.308 17.706ZM197.946 30.7031V4.70889H209.259C210.43 4.70889 211.504 4.95297 212.481 5.44112C213.457 5.92928 214.299 6.57609 215.007 7.38154C215.739 8.187 216.3 9.09008 216.691 10.0908C217.106 11.0915 217.313 12.1166 217.313 13.1662C217.313 14.3133 217.106 15.4117 216.691 16.4612C216.276 17.5107 215.678 18.4138 214.897 19.1705C214.14 19.9271 213.25 20.4763 212.224 20.818L218.339 30.7031H213.725L208.087 21.6601H202.046V30.7031H197.946ZM202.046 18.0355H209.222C209.979 18.0355 210.65 17.8158 211.236 17.3765C211.822 16.9372 212.285 16.3514 212.627 15.6191C212.969 14.8625 213.14 14.0449 213.14 13.1662C213.14 12.2631 212.944 11.4576 212.554 10.7498C212.163 10.0176 211.651 9.43179 211.016 8.99245C210.406 8.55311 209.735 8.33344 209.003 8.33344H202.046V18.0355ZM239.615 27.0786V30.7031H221.785V4.70889H239.285V8.33344H225.885V15.729H237.491V19.1339H225.885V27.0786H239.615Z" fill="white"/>
</svg>
