<svg width="24" height="24" viewBox="0 0 24 24" fill="none" xmlns="http://www.w3.org/2000/svg">
<path d="M4 6.14326V18.9673L9.065 16.7973L15.065 19.7973L20 17.6803V4.85726L21.303 4.29926C21.3791 4.26664 21.4621 4.25343 21.5445 4.2608C21.627 4.26817 21.7063 4.2959 21.7754 4.3415C21.8445 4.3871 21.9012 4.44914 21.9404 4.52206C21.9796 4.59497 22.0001 4.67648 22 4.75926V19.0003L15 22.0003L9 19.0003L2.697 21.7013C2.62091 21.7339 2.53792 21.7471 2.45547 21.7397C2.37301 21.7323 2.29368 21.7046 2.22459 21.659C2.1555 21.6134 2.09881 21.5514 2.05961 21.4785C2.02041 21.4055 1.99993 21.324 2 21.2413V7.00026L4 6.14326ZM16.243 11.2433L12 15.4853L7.757 11.2433C6.91799 10.4041 6.34664 9.335 6.11521 8.17114C5.88378 7.00729 6.00266 5.80094 6.45682 4.70464C6.91098 3.60834 7.68001 2.67133 8.66668 2.01209C9.65336 1.35284 10.8134 1.00098 12 1.00098C13.1866 1.00098 14.3466 1.35284 15.3333 2.01209C16.32 2.67133 17.089 3.60834 17.5432 4.70464C17.9973 5.80094 18.1162 7.00729 17.8848 8.17114C17.6534 9.335 17.082 10.4041 16.243 11.2433V11.2433ZM12 12.6573L14.828 9.82826C15.3875 9.2689 15.7686 8.55617 15.9231 7.78021C16.0775 7.00425 15.9983 6.19992 15.6956 5.46895C15.3929 4.73797 14.8802 4.11319 14.2224 3.67361C13.5646 3.23403 12.7912 2.9994 12 2.9994C11.2088 2.9994 10.4354 3.23403 9.77759 3.67361C9.11977 4.11319 8.60708 4.73797 8.30437 5.46895C8.00165 6.19992 7.92251 7.00425 8.07695 7.78021C8.23139 8.55617 8.61247 9.2689 9.172 9.82826L12 12.6573Z" fill="#1076FF"/>
</svg>
