<svg width="24" height="24" viewBox="0 0 24 24" fill="none" xmlns="http://www.w3.org/2000/svg">
<g clip-path="url(#clip0_21_1892)">
<path d="M10.2697 10.4505C10.8702 10.0266 11.6054 9.83786 12.3357 9.92012C13.0661 10.0024 13.7409 10.3499 14.232 10.8967L14.451 11.1712L18.027 16.2375C18.2808 16.5969 18.4523 17.0078 18.5296 17.441C18.6068 17.8741 18.5879 18.319 18.474 18.744C18.2811 19.4604 17.8298 20.08 17.2072 20.4834C16.5846 20.8868 15.8347 21.0454 15.102 20.9287L14.7997 20.8657L12.1943 20.1667C12.067 20.1326 11.933 20.1326 11.8057 20.1667L9.20025 20.8657C8.45878 21.0644 7.66938 20.9712 6.9945 20.6055L6.69375 20.4187C6.09047 19.9917 5.66585 19.3572 5.50118 18.6367C5.33651 17.9161 5.44335 17.1602 5.80125 16.5135L5.973 16.2375L9.549 11.1712C9.74644 10.8919 9.99021 10.6484 10.2697 10.4512V10.4505ZM13.0868 11.8672C12.9414 11.7144 12.7654 11.5939 12.5703 11.5137C12.3752 11.4335 12.1654 11.3953 11.9545 11.4017C11.7437 11.408 11.5366 11.4588 11.3467 11.5507C11.1568 11.6425 10.9884 11.7734 10.8525 11.9347L10.7745 12.0367L7.146 17.1825C6.99486 17.4286 6.91796 17.713 6.92453 18.0017C6.93111 18.2904 7.02088 18.5711 7.18307 18.81C7.34526 19.049 7.57298 19.236 7.83887 19.3487C8.10476 19.4614 8.39752 19.4949 8.682 19.4452L8.81175 19.4167L11.8057 18.6142C11.933 18.5801 12.067 18.5801 12.1943 18.6142L15.1672 19.4115L15.2745 19.437C15.558 19.4952 15.8522 19.4701 16.1218 19.3649C16.3913 19.2596 16.6247 19.0786 16.7937 18.8437C16.9627 18.6088 17.0602 18.3301 17.0743 18.041C17.0885 17.752 17.0187 17.465 16.8735 17.2147L13.1632 11.9542L13.0868 11.8672ZM20.25 9C21.0456 9 21.8087 9.31607 22.3713 9.87868C22.9339 10.4413 23.25 11.2043 23.25 12C23.25 12.7956 22.9339 13.5587 22.3713 14.1213C21.8087 14.6839 21.0456 15 20.25 15C19.4544 15 18.6913 14.6839 18.1287 14.1213C17.5661 13.5587 17.25 12.7956 17.25 12C17.25 11.2043 17.5661 10.4413 18.1287 9.87868C18.6913 9.31607 19.4544 9 20.25 9ZM3.75 9C4.54565 9 5.30871 9.31607 5.87132 9.87868C6.43393 10.4413 6.75 11.2043 6.75 12C6.75 12.7956 6.43393 13.5587 5.87132 14.1213C5.30871 14.6839 4.54565 15 3.75 15C2.95435 15 2.19129 14.6839 1.62868 14.1213C1.06607 13.5587 0.75 12.7956 0.75 12C0.75 11.2043 1.06607 10.4413 1.62868 9.87868C2.19129 9.31607 2.95435 9 3.75 9ZM20.25 10.5C19.8522 10.5 19.4706 10.658 19.1893 10.9393C18.908 11.2206 18.75 11.6022 18.75 12C18.75 12.3978 18.908 12.7794 19.1893 13.0607C19.4706 13.342 19.8522 13.5 20.25 13.5C20.6478 13.5 21.0294 13.342 21.3107 13.0607C21.592 12.7794 21.75 12.3978 21.75 12C21.75 11.6022 21.592 11.2206 21.3107 10.9393C21.0294 10.658 20.6478 10.5 20.25 10.5ZM3.75 10.5C3.35218 10.5 2.97064 10.658 2.68934 10.9393C2.40804 11.2206 2.25 11.6022 2.25 12C2.25 12.3978 2.40804 12.7794 2.68934 13.0607C2.97064 13.342 3.35218 13.5 3.75 13.5C4.14782 13.5 4.52936 13.342 4.81066 13.0607C5.09196 12.7794 5.25 12.3978 5.25 12C5.25 11.6022 5.09196 11.2206 4.81066 10.9393C4.52936 10.658 4.14782 10.5 3.75 10.5ZM8.25 3C9.04565 3 9.80871 3.31607 10.3713 3.87868C10.9339 4.44129 11.25 5.20435 11.25 6C11.25 6.79565 10.9339 7.55871 10.3713 8.12132C9.80871 8.68393 9.04565 9 8.25 9C7.45435 9 6.69129 8.68393 6.12868 8.12132C5.56607 7.55871 5.25 6.79565 5.25 6C5.25 5.20435 5.56607 4.44129 6.12868 3.87868C6.69129 3.31607 7.45435 3 8.25 3ZM15.75 3C16.5456 3 17.3087 3.31607 17.8713 3.87868C18.4339 4.44129 18.75 5.20435 18.75 6C18.75 6.79565 18.4339 7.55871 17.8713 8.12132C17.3087 8.68393 16.5456 9 15.75 9C14.9544 9 14.1913 8.68393 13.6287 8.12132C13.0661 7.55871 12.75 6.79565 12.75 6C12.75 5.20435 13.0661 4.44129 13.6287 3.87868C14.1913 3.31607 14.9544 3 15.75 3ZM8.25 4.5C7.85218 4.5 7.47064 4.65804 7.18934 4.93934C6.90804 5.22064 6.75 5.60217 6.75 6C6.75 6.39782 6.90804 6.77936 7.18934 7.06066C7.47064 7.34196 7.85218 7.5 8.25 7.5C8.64782 7.5 9.02936 7.34196 9.31066 7.06066C9.59196 6.77936 9.75 6.39782 9.75 6C9.75 5.60217 9.59196 5.22064 9.31066 4.93934C9.02936 4.65804 8.64782 4.5 8.25 4.5ZM15.75 4.5C15.3522 4.5 14.9706 4.65804 14.6893 4.93934C14.408 5.22064 14.25 5.60217 14.25 6C14.25 6.39782 14.408 6.77936 14.6893 7.06066C14.9706 7.34196 15.3522 7.5 15.75 7.5C16.1478 7.5 16.5294 7.34196 16.8107 7.06066C17.092 6.77936 17.25 6.39782 17.25 6C17.25 5.60217 17.092 5.22064 16.8107 4.93934C16.5294 4.65804 16.1478 4.5 15.75 4.5Z" fill="#1E1E1E"/>
</g>
<defs>
<clipPath id="clip0_21_1892">
<rect width="24" height="24" fill="white"/>
</clipPath>
</defs>
</svg>
