<svg width="18" height="19" viewBox="0 0 18 19" fill="none" xmlns="http://www.w3.org/2000/svg">
<path d="M8.69157 17.9629C8.39224 17.9624 8.10376 17.8508 7.88205 17.6496C6.80156 16.6627 5.83601 15.5568 5.00379 14.3529C3.77958 12.6989 3.08135 10.7145 3 8.65789C3 7.14748 3.59965 5.69894 4.66702 4.63092C5.7344 3.5629 7.18207 2.96289 8.69157 2.96289C10.2011 2.96289 11.6487 3.5629 12.7161 4.63092C13.7835 5.69894 14.3831 7.14748 14.3831 8.65789C14.3014 10.7147 13.6032 12.6993 12.3793 14.3537C11.5468 15.5576 10.581 16.6635 9.50024 17.6504C9.27876 17.8513 8.99053 17.9627 8.69157 17.9629ZM8.69157 4.22872C7.51785 4.22983 6.39251 4.6968 5.56248 5.52716C4.73246 6.35753 4.26556 7.48346 4.26424 8.65789C4.34509 10.4598 4.9674 12.1955 6.04983 13.6379C6.8127 14.7472 7.69895 15.7662 8.69157 16.6754C9.68483 15.7668 10.5712 14.7477 11.3333 13.6379C12.4157 12.1955 13.038 10.4598 13.1189 8.65789C13.1178 7.48332 12.651 6.35717 11.8209 5.52663C10.9909 4.69608 9.86543 4.22899 8.69157 4.22789V4.22872ZM8.69157 11.1896C8.19135 11.1896 7.70237 11.0411 7.28644 10.7631C6.87052 10.485 6.54633 10.0898 6.35487 9.62742C6.16341 9.16502 6.11327 8.6562 6.2108 8.16529C6.30832 7.67438 6.54913 7.22343 6.90278 6.86945C7.25643 6.51547 7.70703 6.27437 8.19761 6.17662C8.68819 6.07887 9.19673 6.12887 9.65891 6.3203C10.1211 6.51172 10.5162 6.83598 10.7942 7.25206C11.0722 7.66815 11.2207 8.15737 11.2209 8.65789C11.2202 9.32891 10.9535 9.97225 10.4793 10.4467C10.0051 10.9212 9.36218 11.1881 8.69157 11.1887V11.1896ZM8.69157 7.39289C8.44132 7.39289 8.1967 7.46715 7.98864 7.60628C7.78059 7.74541 7.61844 7.94315 7.52271 8.1745C7.42699 8.40585 7.40198 8.66041 7.45086 8.90598C7.49975 9.15155 7.62031 9.3771 7.79732 9.5541C7.97433 9.73109 8.19982 9.85159 8.44527 9.90034C8.69073 9.94908 8.94512 9.9239 9.17626 9.82796C9.40741 9.73203 9.60493 9.56965 9.74384 9.36138C9.88275 9.1531 9.9568 8.90828 9.95664 8.65789C9.95641 8.32224 9.82306 8.0004 9.58586 7.76305C9.34866 7.52571 9.02702 7.39228 8.69157 7.39206V7.39289Z" fill="#767676"/>
</svg>
