<svg width="24" height="24" viewBox="0 0 24 24" fill="none" xmlns="http://www.w3.org/2000/svg">
<path d="M4 15.0005V8.50049C4 7.30701 4.47411 6.16242 5.31802 5.31851C6.16193 4.47459 7.30653 4.00049 8.5 4.00049C9.69347 4.00049 10.8381 4.47459 11.682 5.31851C12.5259 6.16242 13 7.30701 13 8.50049V15.5005C13 16.1635 13.2634 16.7994 13.7322 17.2683C14.2011 17.7371 14.837 18.0005 15.5 18.0005C16.163 18.0005 16.7989 17.7371 17.2678 17.2683C17.7366 16.7994 18 16.1635 18 15.5005V8.83049C17.3325 8.59458 16.7699 8.13029 16.4116 7.51968C16.0534 6.90907 15.9225 6.19146 16.0422 5.4937C16.1619 4.79593 16.5244 4.16294 17.0656 3.70661C17.6069 3.25028 18.292 3 19 3C19.708 3 20.3931 3.25028 20.9344 3.70661C21.4756 4.16294 21.8381 4.79593 21.9578 5.4937C22.0775 6.19146 21.9466 6.90907 21.5884 7.51968C21.2301 8.13029 20.6675 8.59458 20 8.83049V15.5005C20 16.694 19.5259 17.8386 18.682 18.6825C17.8381 19.5264 16.6935 20.0005 15.5 20.0005C14.3065 20.0005 13.1619 19.5264 12.318 18.6825C11.4741 17.8386 11 16.694 11 15.5005V8.50049C11 7.83745 10.7366 7.20156 10.2678 6.73272C9.79893 6.26388 9.16304 6.00049 8.5 6.00049C7.83696 6.00049 7.20107 6.26388 6.73223 6.73272C6.26339 7.20156 6 7.83745 6 8.50049V15.0005H9L5 20.0005L1 15.0005H4ZM19 7.00049C19.2652 7.00049 19.5196 6.89513 19.7071 6.70759C19.8946 6.52006 20 6.2657 20 6.00049C20 5.73527 19.8946 5.48092 19.7071 5.29338C19.5196 5.10584 19.2652 5.00049 19 5.00049C18.7348 5.00049 18.4804 5.10584 18.2929 5.29338C18.1054 5.48092 18 5.73527 18 6.00049C18 6.2657 18.1054 6.52006 18.2929 6.70759C18.4804 6.89513 18.7348 7.00049 19 7.00049Z" fill="#1076FF"/>
</svg>
