<svg width="16" height="16" viewBox="0 0 16 16" fill="none" xmlns="http://www.w3.org/2000/svg">
<g clip-path="url(#clip0_21_1922)">
<path fill-rule="evenodd" clip-rule="evenodd" d="M7.54707 0.789435L5.48507 5.23193L0.555071 5.86693C0.460048 5.87902 0.370497 5.91815 0.29707 5.97966C0.223644 6.04118 0.169432 6.12249 0.140885 6.21393C0.112338 6.30536 0.110656 6.40307 0.13604 6.49544C0.161424 6.5878 0.212805 6.67093 0.284071 6.73493L3.93057 10.0174L2.94807 14.9434C2.92916 15.0378 2.93791 15.1357 2.97327 15.2253C3.00863 15.3148 3.06909 15.3923 3.1474 15.4483C3.22571 15.5043 3.31853 15.5365 3.4147 15.5411C3.51088 15.5456 3.60632 15.5223 3.68957 15.4739L8.00007 12.9754L12.3126 15.4739C12.3958 15.5221 12.4911 15.5453 12.5871 15.5407C12.6831 15.5361 12.7758 15.5039 12.854 15.4479C12.9322 15.392 12.9926 15.3147 13.028 15.2253C13.0634 15.1359 13.0723 15.0382 13.0536 14.9439L12.0711 10.0174L15.7176 6.73493C15.7887 6.67093 15.8399 6.58788 15.8652 6.49563C15.8905 6.40338 15.8889 6.3058 15.8604 6.21448C15.8319 6.12316 15.7778 6.04192 15.7046 5.9804C15.6313 5.91889 15.5419 5.87968 15.4471 5.86743L10.5171 5.23193L8.45357 0.789435C8.41343 0.702982 8.34941 0.629805 8.26907 0.578525C8.18872 0.527245 8.09539 0.5 8.00007 0.5C7.90475 0.5 7.81142 0.527245 7.73107 0.578525C7.65073 0.629805 7.58671 0.702982 7.54657 0.789435H7.54707Z" fill="#1E1E1E"/>
</g>
<defs>
<clipPath id="clip0_21_1922">
<rect width="16" height="16" fill="white"/>
</clipPath>
</defs>
</svg>
