<svg width="14" height="12" viewBox="0 0 14 12" fill="none" xmlns="http://www.w3.org/2000/svg">
<g clip-path="url(#clip0_101_1429)">
<path d="M13.8569 0.425309L11.6879 11.5001C11.6879 11.5001 11.384 12.2684 10.5503 11.9001L7.44069 9.48574L7.4637 9.504L5.48407 11.3325C5.48407 11.3325 5.32908 11.451 5.1596 11.3771L5.55967 7.92141C5.55967 7.92141 11.1115 2.86738 11.339 2.6523C11.5665 2.43722 11.4902 2.39118 11.4902 2.39118C11.5055 2.13007 11.0809 2.39118 11.0809 2.39118L3.72433 7.12297L0.661343 6.07855C0.661343 6.07855 0.191056 5.9095 0.145249 5.54047C0.0986781 5.17219 0.676612 4.9722 0.676612 4.9722L12.8552 0.133251C12.8552 0.133251 13.8569 -0.312003 13.8569 0.425309Z" fill="#1076FF"/>
</g>
<defs>
<clipPath id="clip0_101_1429">
<rect width="13.7143" height="12" fill="white" transform="translate(0.142578)"/>
</clipPath>
</defs>
</svg>
