<svg width="34" height="34" viewBox="0 0 34 34" fill="none" xmlns="http://www.w3.org/2000/svg">
<g clip-path="url(#clip0_140_1429)">
<path d="M8.33333 6.16699H25.6667C25.954 6.16699 26.2295 6.28113 26.4327 6.48429C26.6359 6.68746 26.75 6.96301 26.75 7.25033V28.1327C26.7501 28.223 26.7276 28.312 26.6845 28.3915C26.6414 28.4709 26.5791 28.5383 26.5033 28.5875C26.4274 28.6368 26.3405 28.6662 26.2504 28.6732C26.1603 28.6803 26.0699 28.6646 25.9873 28.6277L17 24.6162L8.01267 28.6267C7.93023 28.6635 7.83989 28.6791 7.74986 28.6722C7.65983 28.6652 7.57298 28.6358 7.49719 28.5868C7.4214 28.5377 7.35909 28.4704 7.31592 28.3911C7.27275 28.3118 7.25009 28.223 7.25 28.1327V7.25033C7.25 6.96301 7.36414 6.68746 7.5673 6.48429C7.77047 6.28113 8.04602 6.16699 8.33333 6.16699V6.16699ZM24.5833 25.6291V8.33366H9.41667V25.6291L17 22.2447L24.5833 25.6291ZM17 18.6253L13.8161 20.2991L14.4238 16.7544L11.8488 14.2432L15.4086 13.7254L17 10.5003L18.5925 13.7254L22.1512 14.2432L19.5762 16.7544L20.1828 20.2991L17 18.6253Z" fill="white"/>
</g>
<defs>
<clipPath id="clip0_140_1429">
<rect width="26" height="26" fill="white" transform="translate(4 4)"/>
</clipPath>
</defs>
</svg>
