<svg width="15" height="13" viewBox="0 0 15 13" fill="none" xmlns="http://www.w3.org/2000/svg">
<g clip-path="url(#clip0_101_1432)">
<path fill-rule="evenodd" clip-rule="evenodd" d="M7.308 3.53001C7.308 3.76701 7.335 3.99801 7.388 4.22001C6.16842 4.16229 4.97428 3.85093 3.88179 3.3058C2.7893 2.76068 1.82246 1.99376 1.043 1.05401C0.769756 1.51534 0.626039 2.04184 0.627 2.57801C0.627 3.62801 1.17 4.55601 1.996 5.09901C1.50832 5.08403 1.03105 4.95417 0.603 4.72001V4.75801C0.603 6.22601 2.943 7.48901 3.071 7.72801C3.201 7.96801 2.541 7.83501 2.261 7.83501C2.062 7.83501 1.869 7.81501 1.681 7.78101C1.88269 8.38657 2.26783 8.91437 2.78298 9.29119C3.29814 9.66802 3.91779 9.8752 4.556 9.88401C3.46096 10.728 2.11654 11.1842 0.734 11.181C0.488748 11.1815 0.243673 11.1678 0 11.14C1.41174 12.0311 3.04758 12.5027 4.717 12.5C10.378 12.5 13.473 7.88401 13.473 3.88001C13.473 3.75001 13.47 3.61901 13.464 3.48901C14.0652 3.06151 14.5854 2.53019 15 1.92001C14.4374 2.16562 13.8417 2.32669 13.232 2.39801C13.8728 2.0224 14.3543 1.42568 14.586 0.720012C13.991 1.06801 13.332 1.32001 12.631 1.45601C12.341 1.15277 11.9923 0.911659 11.6062 0.747318C11.2201 0.582977 10.8046 0.498838 10.385 0.500012C8.685 0.500012 7.308 1.85601 7.308 3.53001Z" fill="#1076FF"/>
</g>
<defs>
<clipPath id="clip0_101_1432">
<rect width="15" height="12" fill="white" transform="translate(0 0.5)"/>
</clipPath>
</defs>
</svg>
