<svg width="24" height="24" viewBox="0 0 24 24" fill="none" xmlns="http://www.w3.org/2000/svg">
<path d="M19.2431 4.75698C20.7051 6.22298 21.2551 8.24998 20.8931 10.137C21.4611 10.297 21.9991 10.6 22.4471 11.045C23.8511 12.439 23.8511 14.699 22.4471 16.092L17.0001 21.5L13.9781 18.5L11.0001 21.485L2.52015 12.993C0.417145 10.637 0.496145 7.01898 2.75715 4.75698C5.02215 2.49298 8.64515 2.41698 11.0011 4.52898C13.3501 2.41998 16.9801 2.48998 19.2431 4.75698V4.75698ZM12.9621 12.465C12.3461 13.076 12.3461 14.062 12.9621 14.673L17.0001 18.682L21.0381 14.673C21.6541 14.062 21.6541 13.076 21.0381 12.465C20.4141 11.845 19.3961 11.845 18.7701 12.467L16.9981 14.221L15.5911 12.825L15.2281 12.465C14.6041 11.845 13.5861 11.845 12.9621 12.465V12.465ZM4.17215 6.17198C2.68215 7.66198 2.60715 10.047 3.98015 11.623L11.0001 18.654L12.5591 17.092L11.5531 16.092C10.1491 14.699 10.1491 12.439 11.5531 11.045C12.9571 9.65198 15.2331 9.65198 16.6371 11.045L17.0001 11.405L17.3631 11.045C17.7881 10.624 18.2931 10.33 18.8281 10.163C19.2441 8.79598 18.9061 7.25098 17.8271 6.16998C16.3271 4.66798 13.9071 4.60698 12.3371 6.01698L11.0021 7.21498L9.66615 6.01798C8.09115 4.60598 5.67615 4.66798 4.17215 6.17198V6.17198Z" fill="#1076FF"/>
</svg>
