<svg width="29" height="29" viewBox="0 0 29 29" fill="none" xmlns="http://www.w3.org/2000/svg">
<path d="M0 14.5C0 11.6322 0.85041 8.82875 2.44369 6.44424C4.03697 4.05972 6.30156 2.20122 8.95109 1.10375C11.6006 0.00628264 14.5161 -0.280866 17.3288 0.27862C20.1415 0.838105 22.7252 2.2191 24.753 4.24696C26.7809 6.27482 28.1619 8.85847 28.7214 11.6712C29.2809 14.4839 28.9937 17.3994 27.8962 20.0489C26.7988 22.6984 24.9403 24.963 22.5558 26.5563C20.1713 28.1496 17.3678 29 14.5 29C10.6557 28.9957 6.97001 27.4667 4.25166 24.7483C1.53331 22.03 0.00426437 18.3443 0 14.5ZM14.5 26.7702C17.5302 26.773 20.4534 25.6499 22.7022 23.6189C22.0728 23.1185 21.3553 22.7404 20.5868 22.504C20.4257 22.4428 20.2452 22.3832 20.0261 22.3091L19.4526 22.1157C17.3774 21.4149 16.443 20.8494 16.0418 19.5251C16.0077 19.4162 15.9803 19.3054 15.9597 19.1932C15.8176 18.4954 15.8895 17.7711 16.1659 17.1148C16.3606 16.657 16.661 16.2518 17.0423 15.9323C17.5481 15.5227 17.9515 15.001 18.2206 14.4084C18.4896 13.8158 18.6168 13.1687 18.5922 12.5183C18.609 11.9646 18.5163 11.413 18.3196 10.8951C18.123 10.3773 17.8261 9.90325 17.446 9.50025C17.0659 9.09725 16.61 8.77317 16.1045 8.54655C15.599 8.31994 15.0538 8.19525 14.5 8.17962C13.9445 8.18945 13.3966 8.31024 12.8885 8.53488C12.3804 8.75952 11.9223 9.08348 11.5412 9.48771C11.1601 9.89194 10.8636 10.3683 10.6693 10.8887C10.4749 11.4092 10.3865 11.9632 10.4094 12.5183C10.3851 13.1582 10.5065 13.7952 10.7644 14.3813C11.0222 14.9674 11.4099 15.4873 11.8981 15.9017C12.2465 16.1866 12.5346 16.5383 12.7455 16.936C13.1156 17.6378 13.2202 18.4495 13.0403 19.2222C13.0248 19.308 13.0027 19.3926 12.9743 19.4751C12.6231 20.7801 11.7144 21.3392 9.72144 22.0207L9.05928 22.2446C8.8015 22.3316 8.60011 22.4057 8.41483 22.4718C7.64483 22.7177 6.92821 23.1069 6.30267 23.6189C8.55029 25.6487 11.4715 26.7717 14.5 26.7702ZM20.8204 12.5183C20.8434 13.4875 20.647 14.4493 20.2458 15.3317C19.8446 16.2142 19.249 16.9945 18.5036 17.6143C18.3781 17.7152 18.2792 17.8451 18.2152 17.9929C18.1184 18.2421 18.096 18.5142 18.1508 18.7759C18.1555 18.8036 18.162 18.8311 18.1701 18.8581C18.2845 19.2351 18.7759 19.5315 20.1647 20.0019L20.7366 20.1921C20.9718 20.271 21.1603 20.3371 21.3424 20.4015C22.3964 20.7321 23.3748 21.2676 24.2214 21.9772C25.6197 20.1612 26.4813 17.9899 26.7088 15.7093C26.9363 13.4287 26.5205 11.13 25.5085 9.07356C24.4965 7.01717 22.9288 5.28531 20.983 4.07422C19.0372 2.86313 16.7911 2.22122 14.4992 2.22122C12.2073 2.22122 9.96117 2.86313 8.01537 4.07422C6.06957 5.28531 4.50187 7.01717 3.48988 9.07356C2.47789 11.13 2.06208 13.4287 2.28956 15.7093C2.51703 17.9899 3.37871 20.1612 4.77694 21.9772C5.61609 21.2625 6.58706 20.719 7.63505 20.3773C7.84772 20.2984 8.06683 20.2162 8.34072 20.1292L8.99966 19.9069C10.2886 19.4671 10.7413 19.1867 10.8508 18.7968C10.8508 18.8065 10.8508 18.7888 10.8605 18.7469C10.9229 18.4869 10.8921 18.2132 10.7735 17.9736C10.6841 17.817 10.5641 17.68 10.4207 17.5708C9.69682 16.9467 9.12038 16.1698 8.73286 15.2962C8.34535 14.4225 8.15639 13.4738 8.17961 12.5183C8.15647 11.6703 8.30232 10.8261 8.60866 10.0349C8.915 9.2438 9.37571 8.52153 9.96395 7.9102C10.5522 7.29887 11.2562 6.81071 12.035 6.47415C12.8137 6.13759 13.6517 5.95936 14.5 5.94984C15.3463 5.96597 16.1812 6.14869 16.9569 6.48755C17.7326 6.82641 18.434 7.31478 19.0209 7.92475C19.6079 8.53472 20.0689 9.25435 20.3776 10.0425C20.6864 10.8307 20.8368 11.672 20.8204 12.5183Z" fill="#1076FF"/>
</svg>
