<svg width="20" height="20" viewBox="0 0 20 20" fill="none" xmlns="http://www.w3.org/2000/svg">
<path fill-rule="evenodd" clip-rule="evenodd" d="M10.7276 4.12295C10.6395 4.21104 10.5582 4.30048 10.4834 4.3898C10.4086 4.30048 10.3273 4.21104 10.2393 4.12295C9.41467 3.29838 8.07529 2.68442 6.11502 3.17461C4.15947 3.66362 2.67494 5.13725 2.17885 6.99709C1.6765 8.8804 2.21019 11.054 4.06213 12.9057L8.71843 17.5613C9.6951 18.5378 11.2762 18.5373 12.2524 17.5605C13.298 16.5142 14.9594 14.852 16.9058 12.9056C18.757 11.0544 19.2906 8.88083 18.7885 6.99752C18.2926 5.13758 16.8083 3.66362 14.8522 3.1746C12.8917 2.68444 11.5522 3.29833 10.7276 4.12295Z" fill="white"/>
</svg>
