<svg width="20" height="20" viewBox="0 0 20 20" fill="none" xmlns="http://www.w3.org/2000/svg">
<path fill-rule="evenodd" clip-rule="evenodd" d="M9.06074 5.30147C8.63531 4.87605 7.89156 4.44835 6.51934 4.79149C5.1424 5.13581 4.12661 6.16172 3.78921 7.42664C3.45807 8.6681 3.75769 10.2445 5.24055 11.7271L9.89685 16.3827C10.2224 16.7081 10.748 16.7081 11.0735 16.3824C12.1192 15.336 13.7808 13.6736 15.7273 11.7271C17.2094 10.245 17.5092 8.6686 17.1781 7.42691C16.8408 6.16184 15.8252 5.13581 14.448 4.7915C13.0753 4.44832 12.3314 4.87609 11.9061 5.30147C11.6734 5.53416 11.5132 5.79213 11.4111 5.99636C11.3607 6.09707 11.3266 6.1806 11.306 6.2353C11.2958 6.26252 11.2892 6.28218 11.2857 6.29279L11.283 6.30119C11.1789 6.65575 10.8535 6.89969 10.4835 6.89971C10.1135 6.89974 9.78806 6.65584 9.68391 6.3013L9.68123 6.29288C9.67776 6.28227 9.67109 6.2626 9.66087 6.23538C9.64035 6.18067 9.60615 6.09713 9.55578 5.99642C9.45363 5.79217 9.29345 5.53417 9.06074 5.30147ZM10.4834 4.3898C10.5582 4.30048 10.6395 4.21104 10.7276 4.12295C11.5522 3.29833 12.8917 2.68444 14.8522 3.1746C16.8083 3.66362 18.2926 5.13758 18.7885 6.99752C19.2907 8.88083 18.757 11.0544 16.9058 12.9056C14.9594 14.852 13.298 16.5142 12.2524 17.5605C11.2762 18.5373 9.6951 18.5378 8.71843 17.5613L4.06213 12.9057C2.21019 11.054 1.6765 8.8804 2.17885 6.99709C2.67494 5.13725 4.15947 3.66362 6.11502 3.17461C8.07529 2.68442 9.41467 3.29838 10.2392 4.12295C10.3273 4.21104 10.4086 4.30048 10.4834 4.3898Z" fill="white"/>
</svg>
